<svg width="87" height="59" viewBox="0 0 87 59" fill="none" xmlns="http://www.w3.org/2000/svg">
<path d="M48.7992 55.9452C48.0789 53.7021 47.4416 51.515 46.8875 49.3841L44.2278 40.1312C43.3412 37.1029 42.6486 34.8318 42.1499 33.3176C41.7066 31.6353 41.3465 30.3735 41.0694 29.5324L32.5916 0.511871H49.5472L65.09 58.3846H49.5472L48.7992 55.9452ZM61.8484 32.7288L70.2432 0.511871H86.8664L78.3886 29.5324L75.3133 40.1312C74.3159 43.3837 73.4016 46.468 72.5704 49.3841C72.0163 51.515 71.3791 53.7021 70.6587 55.9452L69.9107 58.3846H68.7471L61.8484 32.7288Z" fill="#D14343"/>
<g style="mix-blend-mode:plus-darker">
<path d="M0.133545 0.511871H16.957V58.3846H0.133545V0.511871ZM32.6029 36.0935H20.4899V22.6347H32.6029V0.511871H49.4263V58.3846H32.6029V36.0935Z" fill="#3C71DA"/>
</g>
</svg>
